<?xml version="1.0" standalone="no"?>
<!DOCTYPE svg PUBLIC "-//W3C//DTD SVG 20010904//EN"
 "http://www.w3.org/TR/2001/REC-SVG-20010904/DTD/svg10.dtd">
<svg version="1.0" xmlns="http://www.w3.org/2000/svg"
 width="508.000000pt" height="365.000000pt" viewBox="0 0 508.000000 365.000000"
 preserveAspectRatio="xMidYMid meet">

<g transform="translate(0.000000,365.000000) scale(0.100000,-0.100000)"
fill="#000000" stroke="none">
<path d="M2059 2913 c12 -18 28 -54 36 -80 20 -64 24 -69 75 -92 l45 -20 3 44
c4 61 -7 76 -80 115 -35 18 -72 40 -82 49 -17 14 -17 11 3 -16z"/>
<path d="M2272 2786 c-16 -88 -16 -100 9 -149 l22 -42 12 35 c27 78 26 102 -3
163 l-27 59 -13 -66z"/>
<path d="M2441 2809 c-41 -5 -79 -13 -85 -19 -7 -7 -6 -10 1 -10 7 0 14 -8 18
-19 5 -16 11 -17 58 -8 131 24 335 -13 448 -83 43 -26 48 -27 69 -13 29 20 51
3 33 -26 -7 -10 -9 -21 -6 -24 6 -7 53 13 53 22 0 4 -22 23 -48 43 -147 109
-350 160 -541 137z"/>
<path d="M2111 2681 c30 -36 81 -66 146 -86 19 -5 22 -3 16 12 -8 20 -44 83
-48 83 -8 0 -113 21 -129 26 -14 5 -11 -4 15 -35z"/>
<path d="M2360 2690 c0 -16 -9 -52 -20 -80 -19 -48 -19 -52 -3 -93 9 -23 19
-45 22 -49 4 -4 17 20 31 53 l24 60 -23 70 c-12 38 -24 69 -27 69 -2 0 -4 -13
-4 -30z"/>
<path d="M2030 2618 c-96 -91 -161 -191 -206 -319 -36 -101 -44 -281 -19 -396
46 -208 172 -382 355 -489 272 -160 619 -131 862 71 291 242 355 673 146 990
-38 59 -44 64 -55 48 -22 -29 -16 -53 13 -53 23 0 25 -3 20 -25 -4 -17 2 -41
18 -73 13 -26 35 -81 47 -122 30 -96 32 -261 5 -360 -62 -229 -233 -413 -451
-485 -76 -25 -239 -54 -249 -44 -3 2 -6 56 -7 119 -3 142 -8 200 -20 200 -5 0
-9 -70 -9 -155 l0 -155 -23 0 c-85 0 -261 75 -354 149 -329 266 -349 752 -41
1049 29 28 44 51 43 65 -3 35 -27 30 -75 -15z"/>
<path d="M3071 2606 c-64 -18 -76 -25 -87 -51 -7 -17 -13 -40 -14 -52 0 -19 4
-21 38 -17 57 9 60 10 83 56 12 24 31 53 42 66 11 12 19 22 16 21 -2 -1 -37
-11 -78 -23z"/>
<path d="M2905 2574 c-32 -43 -35 -52 -35 -116 0 -38 4 -67 8 -64 5 3 21 23
37 45 23 34 27 48 21 79 -3 21 -2 53 3 70 5 18 8 32 6 32 -2 0 -20 -21 -40
-46z"/>
<path d="M2164 2584 c9 -13 23 -36 33 -50 15 -23 61 -52 118 -74 l24 -9 -18
47 c-20 51 -20 51 -109 86 l-63 24 15 -24z"/>
<path d="M2431 2552 c-1 -12 -12 -45 -26 -72 -14 -27 -25 -57 -25 -66 0 -24
22 -94 30 -94 15 0 50 94 49 133 -1 47 -26 138 -28 99z"/>
<path d="M2806 2467 c-29 -49 -33 -76 -21 -150 l7 -40 29 45 c28 42 29 47 21
119 l-7 74 -29 -48z"/>
<path d="M2236 2428 c18 -36 40 -58 80 -84 31 -20 58 -33 61 -30 3 2 -1 24 -9
48 -13 39 -21 46 -85 79 l-71 35 24 -48z"/>
<path d="M2929 2419 l-32 -34 58 -3 c50 -3 63 1 104 27 l46 31 -41 0 c-23 0
-55 3 -73 6 -26 6 -35 1 -62 -27z"/>
<path d="M2480 2388 c0 -6 -14 -33 -31 -60 -31 -49 -32 -50 -19 -106 12 -52
13 -55 27 -37 43 58 55 97 48 156 -4 33 -11 59 -16 59 -5 0 -9 -5 -9 -12z"/>
<path d="M2723 2358 c-25 -49 -28 -104 -9 -156 l12 -33 23 42 c22 38 23 46 12
93 -6 28 -12 62 -13 75 -3 21 -6 18 -25 -21z"/>
<path d="M1960 2387 c0 -5 29 -55 64 -110 130 -209 272 -490 337 -667 12 -35
25 -58 26 -53 7 21 -107 344 -161 456 -29 62 -76 146 -104 187 -50 75 -161
203 -162 187z"/>
<path d="M2938 2353 c-64 -4 -69 -6 -94 -39 -15 -19 -24 -37 -21 -40 13 -14
123 18 151 43 17 16 35 31 41 35 5 5 5 7 0 6 -6 -1 -40 -3 -77 -5z"/>
<path d="M2260 2335 c0 -3 11 -28 25 -55 18 -35 41 -60 77 -84 29 -20 53 -34
54 -33 6 5 -19 93 -30 106 -6 7 -29 22 -52 32 -23 9 -45 22 -48 28 -7 11 -26
15 -26 6z"/>
<path d="M2647 2241 c-21 -52 -21 -85 -1 -146 l17 -48 20 38 c20 40 19 55 -6
149 l-14 49 -16 -42z"/>
<path d="M2885 2253 c-85 -10 -93 -14 -115 -50 -11 -19 -19 -37 -17 -39 9 -10
108 19 132 38 26 20 52 59 38 57 -4 -1 -21 -4 -38 -6z"/>
<path d="M2520 2237 c0 -6 -16 -34 -35 -61 -30 -43 -34 -54 -29 -90 11 -67 17
-69 52 -16 28 42 32 57 32 114 0 37 -4 66 -10 66 -5 0 -10 -6 -10 -13z"/>
<path d="M3063 2181 c-132 -104 -268 -310 -361 -546 -57 -143 -60 -163 -9 -60
87 179 256 439 389 598 21 26 37 47 34 47 -2 0 -26 -17 -53 -39z"/>
<path d="M2305 2177 c16 -54 43 -94 85 -126 42 -31 45 -32 48 -13 8 52 -12 84
-77 123 -57 35 -62 37 -56 16z"/>
<path d="M2835 2149 c-16 -4 -47 -11 -68 -14 -31 -5 -40 -13 -58 -46 -11 -23
-19 -43 -16 -45 7 -7 101 28 121 45 17 15 62 72 54 70 -2 -1 -16 -5 -33 -10z"/>
<path d="M2594 2089 c4 -36 13 -83 20 -104 l13 -37 12 32 c10 29 8 42 -15 99
-14 36 -29 68 -31 71 -3 3 -2 -25 1 -61z"/>
<path d="M2558 2099 c-4 -14 -23 -46 -43 -72 -28 -36 -35 -55 -35 -89 0 -72
12 -75 54 -15 36 52 37 56 34 128 -2 51 -5 66 -10 48z"/>
<path d="M2339 2013 c12 -43 25 -64 65 -100 l51 -46 3 36 c4 49 -8 68 -76 120
l-59 44 16 -54z"/>
<path d="M2735 2026 c-51 -18 -63 -27 -78 -60 -10 -21 -16 -40 -14 -42 7 -8
90 28 112 47 24 21 60 79 48 78 -4 -1 -35 -11 -68 -23z"/>
<path d="M2565 1920 c-11 -16 -32 -46 -47 -67 -24 -34 -26 -44 -20 -88 l7 -49
43 53 c39 50 42 57 42 117 0 35 -1 64 -2 64 -2 -1 -12 -14 -23 -30z"/>
<path d="M2746 1933 c-4 -5 -33 -17 -64 -28 -51 -19 -57 -24 -65 -58 -5 -21
-7 -40 -4 -43 7 -8 79 31 98 52 9 11 24 34 33 52 16 31 17 40 2 25z"/>
<path d="M2357 1873 c18 -71 17 -69 76 -123 l48 -44 -6 55 c-6 44 -13 59 -38
82 -18 16 -46 42 -64 59 l-31 29 15 -58z"/>
<path d="M2650 1787 c-59 -29 -66 -36 -77 -74 -6 -24 -10 -43 -7 -43 3 0 27
11 54 25 39 20 55 36 75 75 14 28 24 50 23 49 -2 0 -32 -15 -68 -32z"/>
<path d="M2532 1707 c-6 -7 -7 -18 -3 -26 7 -10 10 -8 16 8 8 27 2 36 -13 18z"/>
<path d="M2530 1588 c0 -49 5 -47 14 5 4 23 3 37 -4 37 -5 0 -10 -19 -10 -42z"/>
<path d="M1858 1040 c-1 -5 -2 -104 0 -220 l3 -210 24 0 25 0 0 130 0 129 38
11 c50 15 112 9 126 -12 19 -32 -4 -71 -52 -86 -23 -8 -42 -18 -42 -23 0 -13
74 -121 93 -138 9 -7 27 -11 41 -9 25 3 24 4 -24 68 l-49 65 34 18 c19 9 39
26 45 36 15 28 12 73 -5 98 -28 40 -129 52 -187 21 -16 -8 -18 -2 -18 62 0 67
-1 70 -24 70 -13 0 -26 -4 -28 -10z"/>
<path d="M2430 982 l0 -69 -72 1 c-41 0 -83 -6 -96 -13 -39 -21 -62 -70 -62
-131 0 -72 24 -120 73 -144 34 -16 50 -17 120 -10 l82 9 3 213 2 212 -25 0
c-24 0 -25 -2 -25 -68z m-19 -112 c17 -10 19 -22 19 -109 0 -112 0 -111 -79
-111 -68 0 -94 29 -99 115 -4 58 -2 66 21 89 21 20 36 26 72 26 26 0 55 -5 66
-10z"/>
<path d="M2653 921 c-18 -5 -40 -15 -49 -22 -44 -36 -58 -151 -28 -215 40 -83
186 -97 248 -23 23 27 26 40 26 102 0 77 -20 125 -59 146 -28 16 -100 21 -138
12z m121 -64 c29 -29 40 -85 26 -136 -13 -50 -42 -71 -96 -71 -61 0 -94 41
-94 115 0 43 5 60 26 84 22 26 33 31 70 31 34 0 51 -6 68 -23z"/>
<path d="M2939 873 c-2 -150 2 -199 20 -223 26 -36 78 -45 143 -26 47 14 54
14 64 1 24 -32 33 -14 36 73 2 48 2 117 0 155 -3 64 -4 67 -27 67 l-25 0 0
-120 0 -119 -30 -16 c-40 -21 -93 -19 -113 3 -14 15 -17 41 -17 135 l0 117
-25 0 c-23 0 -25 -4 -26 -47z"/>
</g>
</svg>
